<?xml version="1.0" standalone="no"?>
<!DOCTYPE svg PUBLIC "-//W3C//DTD SVG 20010904//EN"
 "http://www.w3.org/TR/2001/REC-SVG-20010904/DTD/svg10.dtd">
<svg version="1.0" xmlns="http://www.w3.org/2000/svg"
 width="512.000000pt" height="512.000000pt" viewBox="0 0 512.000000 512.000000"
 preserveAspectRatio="xMidYMid meet">
<metadata>
Created by potrace 1.14, written by Peter Selinger 2001-2017
</metadata>
<g transform="translate(0.000000,512.000000) scale(0.100000,-0.100000)"
fill="#000000" stroke="none">
<path d="M4087 3674 c-11 -9 -380 -17 -897 -18 l-625 -1 0 -65 c0 -75 -16 -65
170 -100 61 -12 113 -24 117 -28 3 -4 -18 -90 -47 -192 -30 -102 -128 -446
-220 -765 -91 -319 -172 -600 -180 -625 -7 -25 -21 -71 -30 -104 -9 -32 -18
-56 -20 -54 -4 4 -160 519 -248 818 -14 47 -80 267 -147 490 -66 223 -123 412
-126 421 -3 13 10 18 68 29 40 8 75 14 78 15 52 10 90 18 109 22 14 2 27 6 30
8 8 5 5 115 -4 123 -3 4 -177 7 -385 7 l-379 0 -3 -30 c-2 -16 -1 -46 0 -66 4
-36 4 -36 94 -65 49 -15 100 -38 112 -51 13 -12 37 -64 54 -114 l31 -91 -100
-337 c-55 -185 -113 -381 -130 -436 -93 -307 -150 -497 -155 -515 -25 -100
-69 -229 -74 -223 -4 4 -117 364 -250 798 -133 435 -252 822 -265 860 -12 39
-21 73 -19 76 2 3 69 19 149 35 l146 28 -3 66 -3 65 -397 0 -398 0 0 -66 0
-66 100 -28 c62 -17 108 -36 121 -49 20 -21 49 -103 214 -621 103 -322 156
-488 220 -685 47 -146 161 -501 217 -678 l20 -63 121 3 121 3 24 80 c13 44 37
123 53 175 15 52 70 235 120 405 177 604 259 878 262 881 1 1 25 -75 54 -169
127 -425 395 -1315 404 -1344 l11 -33 122 0 122 0 38 128 c20 70 55 188 77
262 22 74 56 189 75 255 19 66 46 156 59 200 23 75 139 467 220 745 20 69 50
170 67 225 16 55 36 120 43 145 25 94 33 100 169 137 85 23 112 24 186 8 14
-3 51 -10 83 -16 78 -14 104 -26 116 -58 8 -18 11 -293 9 -913 -3 -805 -5
-889 -19 -904 -16 -15 -101 -37 -187 -49 -20 -3 -50 -9 -67 -13 -29 -8 -30
-10 -30 -73 l0 -64 485 0 485 0 3 68 3 67 -28 1 c-15 0 -37 2 -48 4 -11 2 -42
7 -70 10 -27 3 -57 8 -65 10 -8 2 -44 7 -80 10 -80 9 -106 18 -121 46 -8 16
-11 112 -11 333 0 171 1 318 1 326 1 13 11 15 54 11 119 -9 404 -5 457 8 264
62 441 180 545 366 61 109 85 201 90 350 7 212 -51 386 -162 486 -96 87 -206
129 -406 155 -44 5 -324 13 -330 8z m291 -167 c236 -52 329 -171 337 -437 11
-352 -150 -575 -445 -618 -91 -13 -417 -5 -427 11 -7 11 -7 1036 0 1043 3 3
43 8 88 10 46 3 85 6 87 8 10 10 297 -4 360 -17z"/>
</g>
</svg>
